<?xml version="1.0" encoding="UTF-8" ?>
<!DOCTYPE svg PUBLIC "-//W3C//DTD SVG 1.1//EN" "http://www.w3.org/Graphics/SVG/1.1/DTD/svg11.dtd">
<svg width="2753pt" height="416pt" viewBox="0 0 2753 416" version="1.1" xmlns="http://www.w3.org/2000/svg">
  <g>
    <path fill="#ff7a00" opacity="1.00" d=" M 422.49 1.76 C 442.95 -1.86 464.42 1.05 483.45 9.26 C 497.75 15.62 510.91 25.54 519.19 38.99 C 522.49 43.89 521.48 51.14 516.69 54.70 C 511.90 58.60 504.00 57.65 500.44 52.56 C 491.21 36.83 473.50 28.25 456.14 24.88 C 437.43 21.16 416.09 23.37 401.12 36.13 C 397.16 39.52 390.88 39.44 386.87 36.19 C 382.96 33.25 381.37 27.68 383.13 23.12 C 384.23 19.87 387.05 17.70 389.66 15.69 C 399.27 8.48 410.72 3.94 422.49 1.76 Z"/>
    <path fill="#ff7a00" opacity="1.00" d=" M 2597.19 338.48 C 2616.40 226.17 2636.08 113.93 2655.51 1.66 C 2687.97 1.68 2720.43 1.66 2752.90 1.67 C 2733.43 113.92 2713.96 226.17 2694.46 338.42 C 2662.03 338.45 2629.61 338.34 2597.19 338.48 Z"/>
    <path fill="#ff7a00" opacity="1.00" d=" M 1220.15 4.71 C 1237.60 2.48 1255.31 2.96 1272.78 4.73 C 1292.73 6.95 1312.74 11.77 1330.36 21.67 C 1345.78 30.27 1358.77 43.20 1367.35 58.64 C 1379.96 81.19 1382.87 107.84 1381.16 133.25 C 1348.09 133.25 1315.01 133.26 1281.93 133.24 C 1283.32 122.72 1281.90 111.59 1276.88 102.16 C 1271.61 92.35 1261.73 85.59 1251.02 83.04 C 1235.67 79.39 1218.69 80.69 1204.96 88.85 C 1190.53 97.29 1180.29 111.36 1173.44 126.34 C 1164.81 145.11 1160.69 165.54 1157.60 185.85 C 1155.53 201.85 1154.76 218.76 1160.56 234.11 C 1165.57 247.32 1178.13 256.64 1191.85 259.15 C 1205.83 261.60 1220.90 261.17 1233.91 254.98 C 1247.25 248.56 1256.58 236.16 1263.35 223.37 C 1266.10 217.99 1268.26 212.33 1270.10 206.58 C 1303.58 206.59 1337.06 206.58 1370.54 206.59 C 1361.84 237.67 1345.52 266.80 1322.21 289.27 C 1298.87 312.05 1268.75 327.45 1236.91 334.17 C 1215.92 338.68 1194.23 339.34 1172.89 337.41 C 1153.20 335.60 1133.61 330.88 1115.88 321.99 C 1100.92 314.57 1087.48 303.97 1077.24 290.74 C 1058.97 267.43 1051.84 237.20 1052.08 208.01 C 1052.40 181.34 1057.31 154.68 1066.51 129.63 C 1083.27 84.87 1116.17 45.80 1158.93 23.92 C 1178.02 14.03 1198.82 7.45 1220.15 4.71 Z"/>
    <path fill="#ff7a00" opacity="1.00" d=" M 2021.91 15.25 C 2053.88 15.26 2085.86 15.24 2117.83 15.26 C 2113.31 40.68 2108.79 66.09 2104.29 91.50 C 2119.86 91.48 2135.42 91.53 2150.99 91.48 C 2147.96 110.25 2144.73 128.99 2141.64 147.75 C 2126.05 147.75 2110.47 147.74 2094.90 147.75 C 2089.25 180.17 2083.77 212.61 2078.02 245.00 C 2076.75 252.03 2077.57 261.45 2085.13 264.59 C 2096.16 268.66 2108.20 266.80 2119.70 267.26 C 2115.77 290.38 2112.06 313.54 2107.94 336.63 C 2081.99 337.89 2055.98 339.30 2030.01 337.77 C 2017.94 336.88 2005.50 335.81 1994.45 330.47 C 1987.29 327.07 1981.26 321.11 1978.47 313.63 C 1974.76 303.86 1974.86 293.19 1975.45 282.92 C 1976.83 262.00 1981.54 241.52 1984.86 220.88 C 1989.09 196.50 1993.34 172.13 1997.57 147.75 C 1986.03 147.75 1974.49 147.74 1962.96 147.75 C 1966.06 129.10 1969.11 110.44 1972.33 91.82 C 1984.09 91.06 1996.36 91.73 2008.32 91.49 C 2012.85 66.08 2017.36 40.66 2021.91 15.25 Z"/>
    <path fill="#ff7a00" opacity="1.00" d=" M 427.55 43.72 C 447.00 40.67 468.53 46.19 482.36 60.67 C 485.01 63.67 487.89 66.85 488.82 70.85 C 489.74 75.37 486.92 80.22 482.55 81.69 C 478.47 83.23 473.41 81.53 471.21 77.73 C 466.01 69.35 456.41 64.88 447.03 63.02 C 436.59 60.91 424.64 62.11 416.33 69.32 C 412.33 72.68 405.68 71.60 402.75 67.33 C 399.77 63.41 400.54 57.36 404.36 54.26 C 410.84 48.58 419.12 45.23 427.55 43.72 Z"/>
    <path fill="#ff7a00" opacity="1.00" d=" M 430.55 79.77 C 438.25 77.83 446.84 79.08 453.39 83.67 C 458.48 87.14 462.24 92.83 462.60 99.07 C 463.06 105.26 460.13 111.39 455.44 115.35 C 445.08 124.33 427.71 123.70 418.28 113.65 C 413.26 108.55 411.38 100.57 413.92 93.83 C 416.53 86.64 423.28 81.59 430.55 79.77 Z"/>
    <path fill="#ff7a00" opacity="1.00" d=" M 1511.91 83.57 C 1532.56 78.90 1554.05 78.14 1575.02 80.91 C 1595.83 83.71 1616.25 91.29 1632.95 104.18 C 1646.35 114.47 1656.68 128.54 1662.96 144.19 C 1674.16 171.58 1674.07 202.22 1668.51 230.90 C 1606.61 230.94 1544.72 230.91 1482.82 230.92 C 1481.30 239.31 1481.62 248.22 1484.88 256.18 C 1488.56 265.19 1496.35 272.13 1505.27 275.77 C 1525.54 283.85 1551.13 276.25 1562.74 257.49 C 1593.79 257.52 1624.84 257.48 1655.89 257.51 C 1648.88 273.16 1638.85 287.59 1625.78 298.78 C 1603.59 318.46 1575.30 330.55 1546.13 335.12 C 1523.49 338.73 1500.25 339.80 1477.52 336.27 C 1457.69 333.11 1438.00 326.32 1422.08 313.79 C 1408.03 302.97 1397.41 287.88 1391.71 271.10 C 1385.88 253.76 1385.33 235.04 1387.97 217.06 C 1391.85 184.88 1406.44 154.23 1428.63 130.64 C 1450.77 106.99 1480.42 90.81 1511.91 83.57 M 1514.86 145.80 C 1502.02 153.18 1493.83 166.88 1491.27 181.24 C 1520.70 181.29 1550.12 181.20 1579.55 181.28 C 1580.62 173.60 1580.02 165.47 1576.53 158.45 C 1571.25 147.58 1560.07 139.81 1547.98 138.98 C 1536.63 138.26 1524.80 140.03 1514.86 145.80 Z"/>
    <path fill="#ff7a00" opacity="1.00" d=" M 2392.94 94.91 C 2420.92 82.87 2451.76 79.75 2481.93 79.35 C 2504.09 79.23 2526.51 79.82 2548.14 85.13 C 2561.57 88.44 2575.08 93.98 2584.62 104.36 C 2592.64 112.82 2595.84 124.60 2596.89 135.94 C 2598.13 152.26 2595.04 168.47 2592.32 184.48 C 2585.89 221.99 2579.41 259.49 2573.03 297.01 C 2572.13 303.45 2570.86 310.32 2573.34 316.57 C 2574.85 320.45 2577.83 323.44 2580.54 326.52 C 2581.01 330.58 2580.33 334.76 2580.44 338.86 C 2546.89 338.99 2513.34 338.89 2479.79 338.91 C 2479.62 327.72 2479.40 316.54 2479.24 305.35 C 2469.90 312.94 2459.92 319.83 2449.08 325.09 C 2434.72 332.19 2418.84 335.54 2403.02 337.32 C 2383.36 339.27 2362.96 339.18 2344.13 332.56 C 2328.27 326.97 2314.19 314.94 2308.40 298.89 C 2303.07 283.69 2305.29 267.09 2309.57 251.93 C 2313.35 238.65 2320.61 226.22 2331.21 217.24 C 2345.44 204.16 2363.63 196.40 2382.15 191.59 C 2398.07 187.20 2414.57 185.78 2430.88 183.54 C 2447.16 181.32 2463.63 179.85 2479.51 175.39 C 2485.00 173.86 2490.74 172.00 2494.84 167.81 C 2498.74 164.01 2500.30 158.36 2500.20 153.04 C 2499.91 146.95 2494.48 142.85 2489.24 140.85 C 2479.53 137.42 2468.95 137.23 2458.85 138.75 C 2446.95 140.66 2435.80 149.57 2433.43 161.74 C 2402.23 161.76 2371.04 161.75 2339.86 161.74 C 2342.34 146.64 2348.15 131.86 2357.96 119.99 C 2367.23 108.80 2379.70 100.67 2392.94 94.91 M 2459.54 231.69 C 2447.27 234.41 2434.56 236.38 2423.26 242.13 C 2417.88 244.84 2412.71 248.64 2410.25 254.32 C 2406.94 261.08 2406.24 270.31 2411.93 276.03 C 2418.64 282.83 2428.98 283.32 2437.97 283.07 C 2450.89 282.76 2463.65 276.96 2471.98 267.01 C 2482.47 254.81 2486.65 238.63 2488.60 223.00 C 2479.25 226.92 2469.51 229.89 2459.54 231.69 Z"/>
    <path fill="#ff7a00" opacity="1.00" d=" M 1829.16 96.93 C 1847.49 87.36 1868.74 85.14 1889.10 86.78 C 1905.79 88.10 1923.20 92.58 1935.78 104.24 C 1948.18 115.66 1954.14 132.45 1955.67 148.92 C 1957.72 168.09 1954.33 187.22 1950.93 206.04 C 1943.37 250.16 1935.80 294.29 1928.23 338.41 C 1895.76 338.42 1863.29 338.42 1830.82 338.41 C 1837.46 300.12 1844.11 261.83 1850.75 223.54 C 1852.46 213.09 1854.90 202.67 1854.68 192.02 C 1854.66 184.06 1852.65 175.70 1847.29 169.60 C 1842.61 164.71 1835.53 163.35 1829.04 163.11 C 1819.61 162.87 1809.70 164.30 1801.70 169.62 C 1794.51 174.35 1790.11 182.14 1786.80 189.86 C 1781.90 201.30 1780.46 213.75 1778.30 225.90 C 1771.84 263.40 1765.39 300.91 1758.93 338.41 C 1726.47 338.42 1694.02 338.41 1661.57 338.42 C 1675.55 256.74 1689.70 175.09 1703.62 93.41 C 1733.27 93.24 1762.92 93.37 1792.58 93.34 C 1790.41 106.06 1788.23 118.77 1786.08 131.49 C 1798.63 117.96 1812.76 105.59 1829.16 96.93 Z"/>
    <path fill="#ff7a00" opacity="1.00" d=" M 2296.42 95.49 C 2312.74 87.36 2331.78 84.33 2349.74 87.74 C 2343.99 120.17 2338.15 152.60 2332.41 185.03 C 2312.99 180.15 2291.33 181.48 2273.84 191.81 C 2263.11 198.05 2255.44 208.39 2250.57 219.64 C 2243.10 236.21 2240.66 254.36 2237.62 272.11 C 2233.83 294.21 2230.07 316.32 2226.25 338.42 C 2193.80 338.41 2161.36 338.42 2128.91 338.41 C 2142.93 256.72 2156.93 175.02 2170.99 93.33 C 2200.48 93.35 2229.98 93.31 2259.48 93.35 C 2256.70 109.99 2253.67 126.60 2251.07 143.27 C 2253.88 140.53 2255.00 136.52 2257.31 133.36 C 2266.85 117.73 2279.88 103.75 2296.42 95.49 Z"/>
  </g>
  <g>
    <path fill="#0684bc" opacity="1.00" d=" M 0.12 338.42 C 19.60 226.16 39.07 113.91 58.59 1.66 C 111.75 1.67 164.90 1.66 218.06 1.67 C 242.97 1.89 268.13 2.85 292.45 8.71 C 310.57 13.19 329.31 20.75 340.98 36.03 C 352.46 51.38 353.86 71.77 351.13 90.14 C 348.23 114.02 338.59 137.35 322.25 155.19 C 310.81 167.56 295.36 175.70 279.13 179.84 C 290.90 184.60 303.71 188.80 312.36 198.64 C 321.21 208.47 323.98 222.15 323.76 235.03 C 324.11 262.43 315.07 288.80 313.49 316.01 C 312.86 321.42 315.41 328.37 321.86 328.23 C 321.41 331.63 320.96 335.02 320.49 338.42 C 283.20 338.41 245.91 338.42 208.62 338.42 C 206.70 326.64 208.28 314.66 209.33 302.88 C 210.96 285.86 215.94 269.21 215.67 252.02 C 215.57 244.69 213.72 236.93 208.52 231.48 C 204.57 227.25 198.98 225.14 193.49 223.79 C 184.82 221.74 175.87 221.20 166.99 221.08 C 154.89 221.08 142.78 221.08 130.67 221.09 C 123.93 260.20 117.32 299.34 110.51 338.44 C 73.71 338.38 36.91 338.43 0.12 338.42 M 155.04 80.30 C 151.17 102.54 147.56 124.82 143.81 147.08 C 159.19 147.09 174.58 147.09 189.96 147.08 C 200.56 146.88 211.30 145.89 221.40 142.51 C 227.43 140.50 233.30 137.38 237.39 132.41 C 243.66 124.87 245.76 114.58 244.95 104.99 C 244.48 98.45 241.33 92.01 235.93 88.16 C 227.90 82.41 217.78 80.56 208.08 80.35 C 190.40 80.29 172.72 80.38 155.04 80.30 Z"/>
    <path fill="#0684bc" opacity="1.00" d=" M 794.27 131.17 C 813.48 105.11 842.85 85.83 875.25 81.70 C 890.68 79.78 906.80 79.33 921.68 84.52 C 939.16 90.57 953.96 103.35 963.35 119.19 C 965.05 108.57 966.74 97.95 968.45 87.34 C 997.00 87.33 1025.55 87.33 1054.10 87.34 C 1044.16 144.99 1034.17 202.64 1024.21 260.29 C 1020.86 279.34 1017.96 298.50 1013.22 317.28 C 1010.09 329.46 1007.02 341.79 1001.42 353.12 C 994.23 367.76 983.92 381.10 970.57 390.61 C 959.91 398.23 947.86 403.80 935.37 407.66 C 915.71 413.59 895.07 415.00 874.66 416.00 L 859.76 416.00 C 843.94 414.79 827.97 413.83 812.61 409.57 C 796.52 405.25 780.44 398.54 768.59 386.46 C 757.80 375.67 752.09 360.21 752.91 345.01 C 785.45 344.99 817.99 345.00 850.53 345.00 C 850.24 352.25 855.85 358.72 862.75 360.39 C 871.01 362.51 879.78 362.11 888.12 360.56 C 897.71 358.76 906.73 353.22 911.74 344.71 C 921.03 329.50 922.27 311.29 925.86 294.24 C 910.54 307.12 891.94 316.72 871.96 319.39 C 856.46 321.43 840.50 321.54 825.22 317.91 C 806.58 313.42 789.24 302.54 778.29 286.66 C 767.04 270.48 762.50 250.47 762.24 231.00 C 762.35 215.23 764.90 199.51 769.18 184.35 C 774.69 165.48 782.40 146.98 794.27 131.17 M 901.12 150.20 C 894.11 151.22 887.56 154.51 882.29 159.20 C 872.82 167.59 867.90 179.75 864.79 191.74 C 861.65 204.11 859.27 217.31 862.56 229.91 C 864.51 236.85 867.90 243.87 873.90 248.18 C 881.68 253.62 891.77 254.06 900.88 252.88 C 914.75 250.84 926.34 240.90 932.78 228.76 C 939.83 215.37 943.53 200.15 943.15 185.00 C 942.82 175.03 939.77 164.69 932.84 157.28 C 924.50 149.32 911.92 148.89 901.12 150.20 Z"/>
    <path fill="#0684bc" opacity="1.00" d=" M 632.70 96.87 C 651.77 86.98 673.92 84.97 695.04 87.00 C 710.82 88.55 727.14 93.11 739.06 104.08 C 750.78 114.79 756.87 130.36 758.76 145.86 C 761.37 165.71 758.18 185.65 754.58 205.15 C 746.94 249.57 739.29 293.98 731.67 338.40 C 699.20 338.43 666.73 338.41 634.27 338.41 C 641.29 297.88 648.33 257.35 655.35 216.82 C 657.64 203.48 660.62 188.99 654.91 176.09 C 652.44 169.76 646.64 165.15 639.97 164.00 C 629.52 162.13 618.26 162.96 608.62 167.60 C 599.47 171.97 593.91 181.08 590.12 190.11 C 585.26 201.56 583.90 214.02 581.72 226.16 C 575.26 263.58 568.83 301.00 562.35 338.42 C 529.91 338.40 497.46 338.44 465.02 338.40 C 479.07 256.71 493.07 175.01 507.13 93.33 C 536.77 93.34 566.40 93.34 596.04 93.32 C 593.97 105.94 591.70 118.53 589.62 131.15 C 602.41 117.96 616.27 105.41 632.70 96.87 Z"/>
    <path fill="#0684bc" opacity="1.00" d=" M 393.36 139.52 C 416.89 139.47 440.42 139.51 463.95 139.51 C 454.46 205.81 445.00 272.12 435.50 338.42 C 403.20 338.40 370.90 338.43 338.60 338.41 C 356.84 272.11 375.14 205.83 393.36 139.52 Z"/>
  </g>
</svg>
